<?xml version="1.0"?>
<svg width="480" height="480" xmlns="http://www.w3.org/2000/svg" xmlns:svg="http://www.w3.org/2000/svg">
 <!-- Created with SVG-edit - http://svg-edit.googlecode.com/ -->
 <g>
  <g stroke="null" id="svg_1">
   <path stroke="null" fill="#ffffff" d="m240.01503,128.00766c-61.879044,0 -112.00737,50.143814 -112.00737,112.007889c0,61.878006 50.128326,112.007309 112.00737,112.007309c61.90947,0 112.005753,-50.128265 112.005753,-112.007309c-0.000031,-61.864075 -50.096283,-112.007889 -112.005753,-112.007889z" id="svg_2"/>
   <path stroke="null" fill="#ffffff" d="m414.493134,224.014175c-7.717651,-84.161224 -74.222565,-150.696602 -158.477325,-158.369316l0,-65.644859l-32.002151,0l0,65.644859c-84.254745,7.672203 -150.758598,74.207588 -158.478394,158.368797l-65.535263,0l0,32.002182l65.535263,0c7.719788,84.130219 74.223663,150.66507 158.478912,158.384827l0,65.627777l32.002182,0l0,-65.627777c84.254181,-7.719208 150.758575,-74.254639 158.477325,-158.384857l65.536316,0l0,-32.002167l-65.536896,0l0,0.000534l0.000031,0zm-174.478104,160.008743c-79.504333,0 -144.00901,-64.503601 -144.00901,-144.008453c0,-79.520905 64.504158,-144.008995 144.00901,-144.008995c79.535324,0 144.007401,64.488609 144.007401,144.008995c0,79.505951 -64.472076,144.008453 -144.007401,144.008453z" id="svg_3"/>
  </g>
 </g>
</svg>